<svg width="199" height="27" viewBox="0 0 199 27" fill="none" xmlns="http://www.w3.org/2000/svg">
<path d="M0.952 18.852C1.30667 18.7773 1.596 18.684 1.82 18.572C2.06267 18.4413 2.30533 18.2547 2.548 18.012V3.312C2.19333 2.976 1.624 2.67733 0.84 2.416L0.952 1.324H8.848C13.72 1.324 16.156 3.06 16.156 6.532C16.156 8.34267 15.4933 9.73333 14.168 10.704C12.8427 11.6747 10.9387 12.16 8.456 12.16C8.04533 12.16 7.448 12.132 6.664 12.076V18.012C7.056 18.404 7.756 18.7027 8.764 18.908L8.568 20H0.84L0.952 18.852ZM8.484 10.396C9.58533 10.396 10.416 10.0787 10.976 9.444C11.536 8.79067 11.816 7.83867 11.816 6.588C11.816 5.44933 11.5173 4.572 10.92 3.956C10.3413 3.34 9.52933 3.032 8.484 3.032C7.73733 3.032 7.13067 3.06933 6.664 3.144V10.396H8.484ZM18.1097 18.824C18.4643 18.7493 18.735 18.6653 18.9217 18.572C19.127 18.4787 19.3417 18.3293 19.5657 18.124V4.348C19.5657 3.65733 19.435 3.19067 19.1737 2.948C18.931 2.68667 18.483 2.53733 17.8297 2.5L17.9137 1.408C18.1937 1.352 18.6977 1.268 19.4257 1.156C21.423 0.819999 22.627 0.586666 23.0377 0.456L23.5417 0.735999V7.988C24.027 7.44667 24.615 7.01733 25.3057 6.7C25.9963 6.38267 26.7337 6.224 27.5177 6.224C28.787 6.224 29.8043 6.60667 30.5697 7.372C31.335 8.13733 31.7177 9.192 31.7177 10.536V18.152C31.8857 18.3013 32.1283 18.4507 32.4457 18.6C32.763 18.7307 33.1083 18.8333 33.4817 18.908L33.3977 20H26.2857L26.3697 18.908C26.9297 18.796 27.387 18.544 27.7417 18.152V10.788C27.7417 9.87333 27.5923 9.20133 27.2937 8.772C27.0137 8.324 26.5843 8.1 26.0057 8.1C25.539 8.1 25.0817 8.24 24.6337 8.52C24.1857 8.78133 23.8217 9.14533 23.5417 9.612V18.124C23.915 18.46 24.475 18.712 25.2217 18.88L25.1097 19.972H17.9977L18.1097 18.824ZM41.9267 20.196C39.7054 20.196 38.0254 19.608 36.8867 18.432C35.7667 17.256 35.2067 15.5293 35.2067 13.252C35.2067 10.956 35.7667 9.21067 36.8867 8.016C38.0254 6.82133 39.7054 6.224 41.9267 6.224C44.1481 6.224 45.8187 6.82133 46.9387 8.016C48.0774 9.21067 48.6467 10.9467 48.6467 13.224C48.6467 15.5013 48.0774 17.2373 46.9387 18.432C45.8187 19.608 44.1481 20.196 41.9267 20.196ZM41.9267 18.628C42.8414 18.628 43.5041 18.208 43.9147 17.368C44.3254 16.5093 44.5307 15.128 44.5307 13.224C44.5307 11.32 44.3254 9.93867 43.9147 9.08C43.5041 8.22133 42.8414 7.792 41.9267 7.792C41.0121 7.792 40.3494 8.22133 39.9387 9.08C39.5281 9.93867 39.3227 11.32 39.3227 13.224C39.3227 15.128 39.5281 16.5093 39.9387 17.368C40.3494 18.208 41.0121 18.628 41.9267 18.628ZM55.5704 20.112C54.5624 20.112 53.741 19.8413 53.1064 19.3C52.4717 18.7587 52.1544 17.9373 52.1544 16.836V8.436H50.1664V7.148C51.081 6.79333 51.893 6.32667 52.6024 5.748C53.3304 5.15067 53.909 4.45067 54.3384 3.648H56.1584V6.616H59.7424V8.436H56.1304V16.612C56.1304 17.1347 56.2517 17.5173 56.4944 17.76C56.737 17.984 57.0637 18.096 57.4744 18.096C57.7917 18.096 58.1277 18.0307 58.4824 17.9C58.8557 17.7693 59.1917 17.6013 59.4904 17.396L60.0504 18.376C59.4717 18.8987 58.7717 19.3187 57.9504 19.636C57.1477 19.9533 56.3544 20.112 55.5704 20.112ZM67.7381 20.196C65.5168 20.196 63.8368 19.608 62.6981 18.432C61.5781 17.256 61.0181 15.5293 61.0181 13.252C61.0181 10.956 61.5781 9.21067 62.6981 8.016C63.8368 6.82133 65.5168 6.224 67.7381 6.224C69.9595 6.224 71.6301 6.82133 72.7501 8.016C73.8888 9.21067 74.4581 10.9467 74.4581 13.224C74.4581 15.5013 73.8888 17.2373 72.7501 18.432C71.6301 19.608 69.9595 20.196 67.7381 20.196ZM67.7381 18.628C68.6528 18.628 69.3155 18.208 69.7261 17.368C70.1368 16.5093 70.3421 15.128 70.3421 13.224C70.3421 11.32 70.1368 9.93867 69.7261 9.08C69.3155 8.22133 68.6528 7.792 67.7381 7.792C66.8235 7.792 66.1608 8.22133 65.7501 9.08C65.3395 9.93867 65.1341 11.32 65.1341 13.224C65.1341 15.128 65.3395 16.5093 65.7501 17.368C66.1608 18.208 66.8235 18.628 67.7381 18.628ZM156.953 20.196C154.788 20.196 153.154 19.5893 152.053 18.376C150.97 17.144 150.429 15.464 150.429 13.336C150.429 11.1147 151.008 9.37867 152.165 8.128C153.322 6.85867 154.993 6.224 157.177 6.224C159.268 6.224 160.752 6.70933 161.629 7.68C162.506 8.65067 163.001 10.0973 163.113 12.02L162.329 13.196H154.433V13.644C154.433 15.212 154.657 16.3787 155.105 17.144C155.553 17.8907 156.393 18.264 157.625 18.264C158.334 18.264 159.025 18.1427 159.697 17.9C160.388 17.6387 160.985 17.2467 161.489 16.724L162.609 17.816C161.844 18.5813 161.041 19.1693 160.201 19.58C159.38 19.9907 158.297 20.196 156.953 20.196ZM159.137 11.852C159.137 10.3587 158.988 9.276 158.689 8.604C158.39 7.932 157.849 7.596 157.065 7.596C155.366 7.596 154.489 9.08933 154.433 12.076L159.137 11.852ZM170.44 20.224C169.712 20.224 168.835 20.0747 167.808 19.776C166.8 19.4587 166.026 19.1133 165.484 18.74V15.66L168.368 15.24C168.387 15.856 168.452 16.5093 168.564 17.2C168.695 17.872 168.826 18.3293 168.956 18.572C169.479 18.74 169.992 18.824 170.496 18.824C171.056 18.824 171.523 18.6467 171.896 18.292C172.27 17.9373 172.456 17.4893 172.456 16.948C172.456 16.388 172.232 15.9027 171.784 15.492C171.336 15.0813 170.59 14.6987 169.544 14.344C168.163 13.8773 167.146 13.2987 166.492 12.608C165.839 11.8987 165.512 11.012 165.512 9.948C165.512 8.772 165.988 7.85733 166.94 7.204C167.911 6.532 169.255 6.196 170.972 6.196C171.887 6.196 172.736 6.31733 173.52 6.56C174.304 6.784 174.92 7.10133 175.368 7.512C175.835 7.904 176.068 8.34267 176.068 8.828C176.068 9.48133 175.882 10.004 175.508 10.396C175.154 10.788 174.678 10.984 174.08 10.984C173.688 10.984 173.324 10.9093 172.988 10.76C172.652 10.592 172.382 10.3587 172.176 10.06C172.55 9.64933 172.736 9.22933 172.736 8.8C172.736 8.38933 172.578 8.06267 172.26 7.82C171.943 7.57733 171.514 7.456 170.972 7.456C170.431 7.456 169.992 7.63333 169.656 7.988C169.32 8.34267 169.152 8.80933 169.152 9.388C169.152 9.87333 169.376 10.2933 169.824 10.648C170.272 10.984 171.084 11.3573 172.26 11.768C173.623 12.2533 174.612 12.8413 175.228 13.532C175.863 14.204 176.18 15.0347 176.18 16.024C176.18 17.3493 175.676 18.3853 174.668 19.132C173.66 19.86 172.251 20.224 170.44 20.224ZM178.682 18.852C179.036 18.7773 179.307 18.6933 179.494 18.6C179.699 18.5067 179.914 18.3573 180.138 18.152V10.088C180.138 9.416 180.007 8.95867 179.746 8.716C179.503 8.45467 179.055 8.30533 178.402 8.268L178.486 7.176C178.766 7.12 179.27 7.036 179.998 6.924C181.995 6.588 183.199 6.35467 183.61 6.224L184.086 6.476V18.152C184.552 18.5067 185.15 18.7587 185.878 18.908L185.766 20H178.57L178.682 18.852ZM181.846 4.544C181.099 4.544 180.539 4.376 180.166 4.04C179.792 3.704 179.606 3.21867 179.606 2.584C179.606 1.27733 180.352 0.623999 181.846 0.623999C182.574 0.623999 183.124 0.791999 183.498 1.128C183.871 1.464 184.058 1.94933 184.058 2.584C184.058 3.21867 183.871 3.704 183.498 4.04C183.124 4.376 182.574 4.544 181.846 4.544ZM192.615 20.224C191.887 20.224 191.01 20.0747 189.983 19.776C188.975 19.4587 188.2 19.1133 187.659 18.74V15.66L190.543 15.24C190.562 15.856 190.627 16.5093 190.739 17.2C190.87 17.872 191 18.3293 191.131 18.572C191.654 18.74 192.167 18.824 192.671 18.824C193.231 18.824 193.698 18.6467 194.071 18.292C194.444 17.9373 194.631 17.4893 194.631 16.948C194.631 16.388 194.407 15.9027 193.959 15.492C193.511 15.0813 192.764 14.6987 191.719 14.344C190.338 13.8773 189.32 13.2987 188.667 12.608C188.014 11.8987 187.687 11.012 187.687 9.948C187.687 8.772 188.163 7.85733 189.115 7.204C190.086 6.532 191.43 6.196 193.147 6.196C194.062 6.196 194.911 6.31733 195.695 6.56C196.479 6.784 197.095 7.10133 197.543 7.512C198.01 7.904 198.243 8.34267 198.243 8.828C198.243 9.48133 198.056 10.004 197.683 10.396C197.328 10.788 196.852 10.984 196.255 10.984C195.863 10.984 195.499 10.9093 195.163 10.76C194.827 10.592 194.556 10.3587 194.351 10.06C194.724 9.64933 194.911 9.22933 194.911 8.8C194.911 8.38933 194.752 8.06267 194.435 7.82C194.118 7.57733 193.688 7.456 193.147 7.456C192.606 7.456 192.167 7.63333 191.831 7.988C191.495 8.34267 191.327 8.80933 191.327 9.388C191.327 9.87333 191.551 10.2933 191.999 10.648C192.447 10.984 193.259 11.3573 194.435 11.768C195.798 12.2533 196.787 12.8413 197.403 13.532C198.038 14.204 198.355 15.0347 198.355 16.024C198.355 17.3493 197.851 18.3853 196.843 19.132C195.835 19.86 194.426 20.224 192.615 20.224Z" fill="#AA4545"/>
<path d="M82.1378 20.196C81.0925 20.196 80.0471 20.0747 79.0018 19.832C77.9565 19.5893 76.9951 19.2347 76.1178 18.768V14.512L78.6658 14.036C78.7218 14.82 78.8338 15.6227 79.0018 16.444C79.1885 17.2467 79.3751 17.8253 79.5618 18.18C80.4018 18.4973 81.1765 18.656 81.8858 18.656C82.6885 18.656 83.3325 18.4133 83.8178 17.928C84.3218 17.424 84.5738 16.7333 84.5738 15.856C84.5738 14.9973 84.2938 14.2693 83.7338 13.672C83.1738 13.0747 82.2871 12.5147 81.0738 11.992C79.8231 11.4507 78.8431 10.928 78.1338 10.424C77.4245 9.90133 76.9111 9.31333 76.5938 8.66C76.2951 7.988 76.1458 7.176 76.1458 6.224C76.1458 5.25333 76.4165 4.38533 76.9578 3.62C77.4991 2.836 78.2458 2.22 79.1978 1.772C80.1498 1.324 81.2231 1.1 82.4178 1.1C83.4631 1.1 84.4245 1.268 85.3018 1.604C86.1978 1.92133 86.8978 2.36 87.4018 2.92C87.9245 3.48 88.1858 4.08667 88.1858 4.74C88.1858 5.37467 88.0178 5.87867 87.6818 6.252C87.3458 6.62533 86.9071 6.812 86.3658 6.812C85.6751 6.812 84.9658 6.532 84.2378 5.972C84.7045 5.44933 84.9378 4.88933 84.9378 4.292C84.9378 3.76933 84.7138 3.35867 84.2658 3.06C83.8365 2.76133 83.2391 2.612 82.4738 2.612C81.6898 2.612 81.0551 2.81733 80.5698 3.228C80.1031 3.63867 79.8698 4.18 79.8698 4.852C79.8698 5.412 79.9818 5.89733 80.2058 6.308C80.4298 6.71867 80.8125 7.11067 81.3538 7.484C81.9138 7.85733 82.6978 8.268 83.7058 8.716C85.4605 9.48133 86.7018 10.3027 87.4298 11.18C88.1765 12.0573 88.5498 13.1867 88.5498 14.568C88.5498 16.304 87.9618 17.676 86.7858 18.684C85.6285 19.692 84.0791 20.196 82.1378 20.196ZM92.1373 26.16C91.1853 26.16 90.4479 25.9733 89.9253 25.6C89.4026 25.2267 89.1413 24.6947 89.1413 24.004C89.1413 23.444 89.2906 22.996 89.5893 22.66C89.8879 22.324 90.2799 22.156 90.7653 22.156C91.3066 22.156 91.7733 22.38 92.1653 22.828C91.9599 22.996 91.8573 23.276 91.8573 23.668C91.8573 23.9293 91.9226 24.1347 92.0533 24.284C92.1839 24.452 92.3706 24.536 92.6133 24.536C92.9306 24.536 93.2199 24.3587 93.4813 24.004C93.7613 23.6493 94.0786 23.024 94.4333 22.128L95.2733 20H94.3213L90.2893 8.604C90.0653 7.988 89.4866 7.596 88.5533 7.428L88.6093 6.448H95.9453L95.8053 7.428C95.1146 7.44667 94.5826 7.624 94.2093 7.96L96.9813 15.772L100.061 8.044C99.6319 7.764 99.0253 7.55867 98.2413 7.428L98.3533 6.448H103.561L103.449 7.428C103.113 7.44667 102.805 7.512 102.525 7.624C102.245 7.736 102.068 7.89467 101.993 8.1L96.0293 22.884C95.5439 24.06 95.0026 24.9 94.4053 25.404C93.8079 25.908 93.0519 26.16 92.1373 26.16ZM105.171 18.852C105.526 18.7773 105.796 18.6933 105.983 18.6C106.188 18.5067 106.412 18.3573 106.655 18.152V10.088C106.655 9.416 106.524 8.95867 106.263 8.716C106.002 8.45467 105.544 8.30533 104.891 8.268L104.975 7.176L105.899 7.008C107.878 6.672 109.166 6.41067 109.763 6.224L110.267 6.476L110.491 8.1C110.995 7.50267 111.592 7.04533 112.283 6.728C112.992 6.392 113.767 6.224 114.607 6.224C115.876 6.224 116.884 6.60667 117.631 7.372C118.396 8.13733 118.779 9.192 118.779 10.536V18.152C119.246 18.5067 119.843 18.7587 120.571 18.908L120.459 20H113.375L113.459 18.908C114.019 18.796 114.476 18.544 114.831 18.152V10.788C114.831 9.87333 114.682 9.20133 114.383 8.772C114.103 8.324 113.674 8.1 113.095 8.1C112.61 8.1 112.134 8.24 111.667 8.52C111.219 8.8 110.864 9.17333 110.603 9.64V18.152C111.032 18.488 111.592 18.74 112.283 18.908L112.171 20H105.087L105.171 18.852ZM127.249 20.112C126.241 20.112 125.42 19.8413 124.785 19.3C124.151 18.7587 123.833 17.9373 123.833 16.836V8.436H121.845V7.148C122.76 6.79333 123.572 6.32667 124.281 5.748C125.009 5.15067 125.588 4.45067 126.017 3.648H127.837V6.616H131.421V8.436H127.809V16.612C127.809 17.1347 127.931 17.5173 128.173 17.76C128.416 17.984 128.743 18.096 129.153 18.096C129.471 18.096 129.807 18.0307 130.161 17.9C130.535 17.7693 130.871 17.6013 131.169 17.396L131.729 18.376C131.151 18.8987 130.451 19.3187 129.629 19.636C128.827 19.9533 128.033 20.112 127.249 20.112ZM133.332 18.824C133.687 18.7493 133.957 18.6653 134.144 18.572C134.349 18.4787 134.564 18.3293 134.788 18.124V4.348C134.788 3.65733 134.657 3.19067 134.396 2.948C134.153 2.68667 133.705 2.53733 133.052 2.5L133.136 1.408C133.416 1.352 133.92 1.268 134.648 1.156C136.645 0.819999 137.849 0.586666 138.26 0.456L138.764 0.735999V7.988C139.249 7.44667 139.837 7.01733 140.528 6.7C141.219 6.38267 141.956 6.224 142.74 6.224C144.009 6.224 145.027 6.60667 145.792 7.372C146.557 8.13733 146.94 9.192 146.94 10.536V18.152C147.108 18.3013 147.351 18.4507 147.668 18.6C147.985 18.7307 148.331 18.8333 148.704 18.908L148.62 20H141.508L141.592 18.908C142.152 18.796 142.609 18.544 142.964 18.152V10.788C142.964 9.87333 142.815 9.20133 142.516 8.772C142.236 8.324 141.807 8.1 141.228 8.1C140.761 8.1 140.304 8.24 139.856 8.52C139.408 8.78133 139.044 9.14533 138.764 9.612V18.124C139.137 18.46 139.697 18.712 140.444 18.88L140.332 19.972H133.22L133.332 18.824Z" fill="#3C3662"/>
</svg>
