<svg width="36" height="36" viewBox="0 0 36 36" fill="none" xmlns="http://www.w3.org/2000/svg">
<path d="M36 18C36 27.9411 27.9411 36 18 36C8.05887 36 0 27.9411 0 18C0 8.05887 8.05887 0 18 0C27.9411 0 36 8.05887 36 18Z" fill="#D9D9D9"/>
<path d="M18 12C19.1 12 20 12.9 20 14C20 15.1 19.1 16 18 16C16.9 16 16 15.1 16 14C16 12.9 16.9 12 18 12ZM18 22C20.7 22 23.8 23.29 24 24H12C12.23 23.28 15.31 22 18 22ZM18 10C15.79 10 14 11.79 14 14C14 16.21 15.79 18 18 18C20.21 18 22 16.21 22 14C22 11.79 20.21 10 18 10ZM18 20C15.33 20 10 21.34 10 24V26H26V24C26 21.34 20.67 20 18 20Z" fill="black"/>
</svg>
